<?xml version="1.0" standalone="no"?>
<!DOCTYPE svg PUBLIC "-//W3C//DTD SVG 20010904//EN"
 "http://www.w3.org/TR/2001/REC-SVG-20010904/DTD/svg10.dtd">
<svg version="1.0" xmlns="http://www.w3.org/2000/svg"
 width="200.000000pt" height="200.000000pt" viewBox="0 0 200.000000 200.000000"
 preserveAspectRatio="xMidYMid meet">
<metadata>
Created by potrace 1.11, written by Peter Selinger 2001-2013
</metadata>
<g transform="translate(0.000000,200.000000) scale(0.100000,-0.100000)"
fill="#000000" stroke="none">
<path d="M1246 1968 c12 -36 6 -115 -11 -148 -22 -43 -55 -61 -131 -70 l-67
-8 -66 59 c-74 67 -157 120 -227 144 -43 15 -48 14 -66 -1 -30 -28 -65 -160
-67 -252 -1 -37 -3 -42 -18 -35 -35 16 -58 9 -59 -17 -1 -14 3 -30 8 -37 6 -8
6 -29 -1 -60 -9 -43 -8 -50 10 -63 12 -10 16 -19 10 -25 -5 -6 -20 -36 -33
-67 l-24 -58 -39 28 c-22 15 -41 30 -43 35 -5 9 -32 9 -32 -1 0 -30 54 -191
74 -223 14 -21 26 -41 26 -45 0 -9 -49 23 -81 52 -33 32 -38 30 -34 -9 4 -53
40 -124 82 -164 l38 -37 -37 22 c-34 19 -38 20 -38 4 0 -28 42 -87 90 -127 67
-56 118 -88 129 -81 6 4 8 -1 6 -12 -1 -9 2 -24 9 -32 23 -31 98 -68 81 -41
-3 5 -1 12 5 16 6 4 10 -26 10 -87 0 -51 4 -98 8 -104 7 -11 65 -44 77 -44 4
0 5 10 3 23 -2 18 2 22 25 23 38 1 41 6 38 73 l-2 58 48 -8 c26 -4 54 -8 61
-8 20 -1 14 -13 -28 -61 -22 -25 -50 -61 -62 -81 -11 -21 -32 -42 -47 -49 -14
-6 -57 -36 -96 -65 -69 -52 -103 -92 -142 -166 -26 -50 -40 -43 -122 61 -79
99 -173 339 -204 520 -16 86 -17 375 -3 450 4 19 12 62 17 94 14 82 74 261
106 316 14 25 45 68 69 96 24 28 40 54 37 58 -3 3 0 6 8 6 10 1 9 4 -4 11 -9
6 -32 8 -51 5 l-33 -5 43 47 c24 26 44 50 44 53 0 15 -44 17 -91 5 -151 -39
-272 -208 -321 -446 -15 -71 -20 -138 -21 -270 -1 -223 6 -295 58 -538 48
-231 213 -520 374 -654 l33 -28 469 0 469 0 5 23 c14 54 -10 103 -67 138 -38
24 -38 24 -38 91 0 36 -3 75 -6 85 -5 13 1 10 20 -9 45 -47 47 -40 31 80 -9
62 -30 117 -65 168 -32 48 -33 47 35 63 22 6 69 17 105 26 98 25 212 88 268
150 59 64 120 184 128 247 4 43 3 47 -13 42 -12 -4 -14 -3 -6 3 7 5 15 35 18
66 6 58 0 73 -13 38 -4 -11 -7 24 -7 77 0 98 -8 152 -24 152 -4 0 -8 -6 -8
-12 -1 -23 -12 -70 -18 -76 -7 -7 -6 -8 -47 79 l-36 77 26 6 c50 10 56 20 37
56 -9 18 -13 39 -9 48 10 23 13 32 20 66 l7 29 -42 -7 c-22 -3 -41 -3 -42 1
-10 98 -59 213 -94 227 -9 3 -23 1 -33 -5 -20 -13 -106 -121 -130 -164 -22
-39 -31 -45 -54 -36 -16 6 -20 19 -23 67 -5 94 -23 116 -46 56 l-11 -27 -21
41 c-27 51 -67 98 -96 114 -21 11 -22 10 -15 -12z"/>
</g>
</svg>
